<svg fill="#000000" xmlns="http://www.w3.org/2000/svg" viewBox="0 0 32 32" width="32px" height="32px"><path fill="none" stroke="#000000" stroke-miterlimit="10" stroke-width="2" d="M16 5A11 11 0 1 0 16 27A11 11 0 1 0 16 5Z"/><path d="M26.937 17.162c.002-.016.005-.031.006-.046C26.942 17.131 26.939 17.146 26.937 17.162zM5.056 17.112c.002.021.006.042.008.063C5.063 17.153 5.058 17.132 5.056 17.112zM17.489 18.916h2.847l.447-2.892h-3.294v-1.581c0-1.201.393-2.267 1.516-2.267h1.806V9.653c-.317-.043-.988-.137-2.256-.137-2.648 0-4.2 1.398-4.2 4.584v1.924h-2.722v2.892h2.722v7.948C14.894 26.945 15.44 27 16 27c.507 0 1.001-.046 1.489-.112V18.916z"/></svg>